<svg xmlns="http://www.w3.org/2000/svg" xmlns:xlink="http://www.w3.org/1999/xlink" viewBox="0 0 344 510"><defs><style>.cls-1{fill:#2a2a2b;}.cls-2,.cls-3,.cls-5,.cls-6,.cls-7{fill:none;stroke-miterlimit:10;}.cls-2,.cls-3,.cls-6,.cls-7{stroke-width:3px;}.cls-2{stroke:url(#linear-gradient);}.cls-3{stroke:url(#linear-gradient-2);}.cls-4{fill:#1a1a1a;}.cls-5{stroke:#000;}.cls-6{stroke:url(#linear-gradient-3);}.cls-7{stroke:url(#linear-gradient-4);}.cls-8{fill:url(#linear-gradient-5);}.cls-9{fill:#fff;}.cls-10{fill:#f2f4ff;}</style><linearGradient id="linear-gradient" x1="75.66" y1="246.06" x2="73.13" y2="223.09" gradientTransform="translate(290 115.95) rotate(78.78)" gradientUnits="userSpaceOnUse"><stop offset="0.14" stop-color="#333"/><stop offset="0.92" stop-color="#1a1a1a"/></linearGradient><linearGradient id="linear-gradient-2" x1="74.66" y1="260.06" x2="72.13" y2="237.09" gradientTransform="translate(302.93 128.2) rotate(78.78)" xlink:href="#linear-gradient"/><linearGradient id="linear-gradient-3" x1="161" y1="369" x2="180" y2="369" gradientTransform="matrix(1, 0, 0, 1, 0, 0)" xlink:href="#linear-gradient"/><linearGradient id="linear-gradient-4" x1="120" y1="365" x2="139" y2="365" gradientTransform="matrix(1, 0, 0, 1, 0, 0)" xlink:href="#linear-gradient"/><linearGradient id="linear-gradient-5" x1="167.5" y1="351" x2="176.5" y2="351" gradientTransform="matrix(1, 0, 0, 1, 0, 0)" xlink:href="#linear-gradient"/></defs><title>BACKPACK</title><g id="BACKPACK"><path class="cls-1" d="M291,478l29-27s7-20,5-24a61.31,61.31,0,0,0-5-8l3-65-1-53-10-13s-3-123-14-140-23-43-37-51-38.5-17.5-38.5-17.5h-55s-40,10-49,16-35,18-44,91v89l-11,10v5l-6,5s2,23,3,30,7,73,5,78l6,8s-2,21-2,24-6,6,4,8S269.5,482.5,291,478Z"/><path d="M234.5,48.5c-1-4-12-27-12-27h-19s-21,35-22,42-3.17,16-3.17,16H222.5S235.5,52.5,234.5,48.5Zm-33,30-1-42s2-3,7-3a58.46,58.46,0,0,1,10,1Z"/><path d="M298.13,471.37,306,493s24,1,26-1-4-15-4-15l-10.84-23.36Z"/><path d="M33,453l36.75-21.69L71,411,31,437l-4-1-12,7v4C15,448,33,453,33,453Z"/><path d="M212,92s33,19,44,39,28,56,28,56,16,74,16,76,2,31,2,31v18l2-32L280,164l-27-44Z"/><path d="M73,288l7-3V231l6-65s-1-36,18-50,27-19,51-20,58,14,63,16,23,22,23,22,33,59,33,61,11,36,11,36l-4-29-18-41s-21-42-28-45-31-16-50-20-44-3-44-3-32,12-37,20L93,126s-15,32-15,64S73,288,73,288Z"/><polygon points="288 307 288 230 295 290 296 312 288 307"/><ellipse class="cls-2" cx="74.39" cy="234.57" rx="10.5" ry="3.05" transform="translate(-170.17 261.89) rotate(-78.78)"/><ellipse class="cls-3" cx="73.39" cy="248.57" rx="10.5" ry="3.05" transform="translate(-184.71 272.18) rotate(-78.78)"/><path class="cls-4" d="M299.5,404.5s1,29-3,34-10,4-12,6-2,10-2,10l9,20s-6-18-4-21,14-13,14-13Z"/><path class="cls-4" d="M278.5,447.5c-1,1-14,13-16,16s6,5,6,5h16Z"/><polygon class="cls-4" points="290 378 194 423 176 435 245 414 290 390 290 378"/><path class="cls-4" d="M131,382a22.19,22.19,0,0,1,2.19.81c4.2,1.78,12.25,6.51,3.81,14.19-11,10-15,14-15,14s-3,1,5,2,23-6,31,0,10,7,10,7-17-29-18-30-2-15-2-15l6-26s-25,2-31,7S131,382,131,382Z"/><path class="cls-4" d="M81,420s-4,7-5,8,9,7,9,7l22,6,13,1L96,431s1,1-7-5Z"/><path class="cls-4" d="M77,348c-2,1,0,9,11,12s24,1,24,2,3-8-4-6S77,348,77,348Z"/><path class="cls-4" d="M103,365c-2,2-4,14,1,19s14,10,19,11,5-7,5-7-19-18-19-19S103,365,103,365Z"/><path class="cls-4" d="M159,310c-1,1-25,13-25,13v3l25-11-5,28s1,20-1,29,2,23.09,2,23.09L161,349l3-23s12,12,12,11,8-4,6-8-9-5-9-5-2,0-1,4S159,310,159,310Z"/><path class="cls-4" d="M217,356c2,1,28,12,28,12l29-6v-7Z"/><path class="cls-4" d="M233,320c-2-1-24-1-24,0s27,11,27,11l25,3,35-3s-10-9-20-6-24,3-27,3S233,320,233,320Z"/><path class="cls-4" d="M229,304s44,1,49,2-4-11-4-11H242C238,295,229,304,229,304Z"/><polygon class="cls-4" points="191 306 162 310 140 302 140 291 155 301 191 306"/><polygon class="cls-4" points="312 293 312 310 319 306 312 293"/><path d="M176.5,345.5c2,1,110,9,120,3l-10,6-108-5Z"/><path class="cls-5" d="M162.5,309.5s22-2,47-3,75,1,75,1l8,6,6,13-2,22s-3,48,0,52,0,40,0,39-90,2-90,2l-36-7s0-33,2-38"/><path class="cls-5" d="M79.5,284.5s36,12,45,13S159,310,159,310l-5.5,33.5s-13,7-21,6-32-9-32-9l-33-12"/><path class="cls-5" d="M79.5,411.5l60,13s8,5,13,5,13-4,13-4h-17"/><ellipse class="cls-6" cx="170.5" cy="369" rx="8" ry="12.5"/><ellipse class="cls-7" cx="129.5" cy="365" rx="8" ry="12.5"/><polygon class="cls-8" points="167.5 345.5 170.5 356.5 174.5 354.5 176.5 345.5 167.5 345.5"/><path class="cls-9" d="M177.91,304.18,226,304V283l-9-6,1-24H203l.5,21.5-43-46,49-47,1,22,17,1v-28l6-3v-26h-49l1,17h20l-47,48-33-36,5-4-7-10,20,1v-16h-39l-1,23-7,6v24l13,1,1-22,36,44-23,21s-16,20-16,21,2-19,2-19l-9-3-2,22,4,7,4,20.5L140,302l-1.5-15.5-16-2,5-9-5-6,28-29,48,49-21,1Z"/><polygon class="cls-10" points="103.5 170.5 96.5 176.5 125.5 176.5 130.5 173.5 103.5 170.5"/><polygon class="cls-10" points="196.69 173.5 192.39 177.89 227.5 178.75 233.5 173.5 196.69 173.5"/><polygon class="cls-10" points="146.5 223.5 141.78 227.81 160.5 227.5 165 224.18 146.5 223.5"/><path class="cls-10" d="M186.5,277.25c0,.25,31,.25,31,.25l8,5-34.5-.66Z"/><polygon class="cls-10" points="100.16 268.41 122.5 269.5 127.5 275.5 102.5 271.5 100.16 268.41"/></g></svg>