<svg xmlns="http://www.w3.org/2000/svg" xmlns:xlink="http://www.w3.org/1999/xlink" viewBox="0 0 476 353"><defs><style>.cls-1{fill:#efefef;}.cls-2{fill:#e5e5e5;}.cls-3{fill:#eeeef0;}.cls-4{fill:#1a1a1a;}.cls-5{fill:url(#linear-gradient);}.cls-6{fill:url(#linear-gradient-2);}.cls-7{fill:url(#linear-gradient-3);}.cls-8{fill:url(#linear-gradient-4);}.cls-9{fill:url(#linear-gradient-5);}.cls-10{fill:url(#linear-gradient-6);}.cls-11{fill:url(#linear-gradient-7);}.cls-12{fill:url(#linear-gradient-8);}.cls-13{fill:url(#linear-gradient-9);}.cls-14{fill:url(#linear-gradient-10);}.cls-15{fill:none;stroke:#ccc;stroke-miterlimit:10;stroke-dasharray:6;}</style><linearGradient id="linear-gradient" x1="431.96" y1="174.71" x2="439.36" y2="142.88" gradientUnits="userSpaceOnUse"><stop offset="0.63" stop-color="#e3e1d9"/><stop offset="0.96" stop-color="#777063"/></linearGradient><linearGradient id="linear-gradient-2" x1="424.79" y1="146.1" x2="431.74" y2="116.24" xlink:href="#linear-gradient"/><linearGradient id="linear-gradient-3" x1="431.27" y1="102.62" x2="440.83" y2="61.52" xlink:href="#linear-gradient"/><linearGradient id="linear-gradient-4" x1="24.06" y1="81.85" x2="42.06" y2="74.35" xlink:href="#linear-gradient"/><linearGradient id="linear-gradient-5" x1="44.5" y1="132.57" x2="27.5" y2="132.82" xlink:href="#linear-gradient"/><linearGradient id="linear-gradient-6" x1="38.93" y1="183" x2="54" y2="183" xlink:href="#linear-gradient"/><linearGradient id="linear-gradient-7" x1="405.76" y1="47.89" x2="417.24" y2="43.11" xlink:href="#linear-gradient"/><linearGradient id="linear-gradient-8" x1="41.76" y1="43.89" x2="53.24" y2="39.11" xlink:href="#linear-gradient"/><linearGradient id="linear-gradient-9" x1="199.13" y1="314.9" x2="289.89" y2="277.09" gradientUnits="userSpaceOnUse"><stop offset="0.1" stop-color="#777063"/><stop offset="0.37" stop-color="#e3e1d9"/><stop offset="0.96" stop-color="#777063"/></linearGradient><linearGradient id="linear-gradient-10" x1="244.09" y1="289.57" x2="251.42" y2="172.23" xlink:href="#linear-gradient-9"/></defs><title>BAG</title><g id="BAG"><path class="cls-1" d="M455.5,64.5c-1-5-17-13-20-15s-12-3-22-4-32,2-32,2l2,16s32-3,41,6,18,16,23,17,6-3,9-6S456.5,69.5,455.5,64.5Zm-10,12c-5-2-16-13-20-15s-25-7-25-7,13.09.57,23.81,2.14a67.87,67.87,0,0,1,9.19,1.86c10,3,15,6,17,11S450.5,78.5,445.5,76.5Z"/><path class="cls-1" d="M423.5,86.5c-6-2-15,3-15,3l-3,78s15,9,20,8,5-3,5-9-7-11-9-15,0-38,1-42,11-7,12-12S429.5,88.5,423.5,86.5Zm2,75c3,1,1,8,0,11s-6-1-9-5,0-12,0-12S422.5,160.5,425.5,161.5Zm2-60c-3,2-8,3-8,3l1-5a40,40,0,0,1,3-9h5.83C435.17,90.5,430.5,99.5,427.5,101.5Z"/><path class="cls-1" d="M74.5,42.5s-17-1-27,0-26,3-30,7-10,12-8,15,2,8,9,10,16,3,18,2S45,67,45,67l-.5-5.5,7.5-.59A37.75,37.75,0,0,1,62.5,57.5a49.82,49.82,0,0,1,13,0ZM60.82,49.18C33.67,52.52,34.42,63.74,33.5,66.5c-1,3-14,3-16,1s2-10,8-13c4.26-2.13,24.14-4.26,35.32-5.32,2.35-.28,4.89-.52,7.68-.68C68.5,48.5,65.38,48.75,60.82,49.18Z"/><path class="cls-1" d="M50.5,89.5s-4-7-9-5-12,5-12,8,2,9,8,14,8,51,8,51-10,8-9,12,2,12,9,10a31,31,0,0,0,12-7Zm-18,6c-2-4,5-5,7-5l3,2c3,2,3,16,3,16S34.5,99.5,32.5,95.5Zm15,80c-1,3-7-2-8-6s8-9,8-9S48.5,172.5,47.5,175.5Z"/><path class="cls-2" d="M45,61s370-5,371,0-9,217-11,222-30,37-39,37-282-4-284-6-22-58-22-60S45,61,45,61Z"/><path class="cls-3" d="M72.5,37.5S67,147,62.5,209.5c-1.29,18,0,65,0,69s6,25,10,29,0,5,9,6,269,6,304,0c0,0,13-5,15-12s-2.75-242-2.75-242-2.2-7.38-4.41-13.6c-1.51-4.27-3-8-3.84-8.4-2-1-195-4-216-3S72.5,37.5,72.5,37.5Z"/><polygon class="cls-4" points="285.71 68.5 81.5 224.82 81.5 192.45 243.42 68.5 285.71 68.5"/><polygon class="cls-4" points="370.35 68.5 81.5 289.61 81.5 257.24 328.07 68.5 370.35 68.5"/><polygon class="cls-4" points="388.5 86.69 388.5 119.05 151.46 300.5 109.39 300.5 109.31 300.4 388.5 86.69"/><polyline class="cls-4" points="237.41 300.5 195.13 300.5 388.5 152.48 388.5 184.84"/><polygon class="cls-4" points="388.5 219.04 388.5 251.4 324.36 300.5 282.08 300.5 388.5 219.04"/><polygon class="cls-4" points="388.5 279.3 388.5 300.5 360.8 300.5 388.5 279.3"/><polygon class="cls-4" points="201.21 68.5 81.5 160.14 81.5 127.77 158.93 68.5 201.21 68.5"/><polygon class="cls-4" points="114.24 68.5 81.5 93.57 81.5 68.5 114.24 68.5"/><path class="cls-5" d="M431,151s13-6,17-6,7,6,7,6l-33.87,21.19L416,168s28.5-13.5,28.5-16.5-18.69,4-18.69,4l-4.31-3Z"/><path class="cls-6" d="M421.68,116.67,420.05,145H435s2-16,2-19-2-9-2-9Z"/><path class="cls-7" d="M423,87s8-17,14-21,7-4.83,8.5-2.41S451,69,451,69l-24,32-7-1Z"/><path class="cls-8" d="M32,59s-10.33-2-10.67.47S27,90,32,95s5,4,5,4l6-1s2-16,0-17S32,59,32,59Z"/><path class="cls-9" d="M32,117s-3,1-3,4-1,16,1,20,0,6,2,7,13.5,0,13.5,0l-3.2-31Z"/><path class="cls-10" d="M48,160s-10,6-9,8,1,32,3,35,4,3,6,3,6-7,6-8V175.34Z"/><ellipse class="cls-11" cx="411.5" cy="45.5" rx="5.5" ry="3.5"/><ellipse class="cls-12" cx="47.5" cy="41.5" rx="5.5" ry="3.5"/><path class="cls-13" d="M207,314h75V278s-22,2-23,0-52,0-52,0Z"/><path class="cls-14" d="M208,283s19,0,22-2,6,0,9-24,6-26,3-28-9-6-5-9,9-5,12-4,10,3,9,5-6,7-7,10,1,45,3,48,19,4,23,4h4l-1-6-23,1s-6-45-4-47,6-6,7-8,0-5-4-7-9-4-12-3-10,4-10,6-.5,6.5,2.5,9.5,3,22-1,35-3,15-14,15h-13Z"/><path class="cls-15" d="M388.5,37.5s3,62,4,67,5,183,3.5,189-3.5,11-9.5,13.5-99,2.5-99,2.5"/><path class="cls-15" d="M74.5,42.5s-6,122-6,131-4,101.8,3,116.4,4,18.6,19,19.6,111,0,111,0"/></g></svg>