<svg id="BELT" xmlns="http://www.w3.org/2000/svg" xmlns:xlink="http://www.w3.org/1999/xlink" viewBox="0 0 602 260"><defs><style>.cls-1{fill:#d3af3f;}.cls-1,.cls-10,.cls-14,.cls-19,.cls-2,.cls-6,.cls-7,.cls-8{stroke:#000;}.cls-1,.cls-10,.cls-14,.cls-19,.cls-2,.cls-21,.cls-5,.cls-6,.cls-7,.cls-8{stroke-miterlimit:10;}.cls-2{fill:url(#linear-gradient);}.cls-3{font-size:36px;letter-spacing:0.08em;}.cls-11,.cls-13,.cls-17,.cls-20,.cls-3,.cls-4,.cls-9{font-family:Helvetica-Bold, Helvetica;font-weight:700;}.cls-4{font-size:18px;letter-spacing:0.01em;}.cls-5{fill:none;stroke:#f15a24;stroke-dasharray:3;}.cls-6{fill:url(#linear-gradient-2);}.cls-7{fill:url(#linear-gradient-3);}.cls-8{fill:url(#linear-gradient-4);}.cls-9{font-size:10px;letter-spacing:0.07em;}.cls-10{fill:url(#linear-gradient-5);}.cls-11{font-size:14px;letter-spacing:0.06em;}.cls-12{letter-spacing:0.08em;}.cls-13{font-size:44.77px;letter-spacing:0.08em;}.cls-14{fill:url(#linear-gradient-6);}.cls-15{fill:#272326;}.cls-16{fill:#514e52;}.cls-17{font-size:21px;letter-spacing:0.08em;}.cls-18{letter-spacing:1.44em;}.cls-19{fill:url(#linear-gradient-7);}.cls-20{font-size:20.38px;letter-spacing:0.08em;}.cls-21{fill:#191919;stroke:#333;}</style><linearGradient id="linear-gradient" x1="76.75" y1="87.5" x2="425.5" y2="87.5" gradientUnits="userSpaceOnUse"><stop offset="0" stop-color="#dcb520"/><stop offset="0.07" stop-color="#d9b21f"/><stop offset="0.12" stop-color="#d1a91c"/><stop offset="0.17" stop-color="#c49917"/><stop offset="0.18" stop-color="#c29716"/><stop offset="0.62" stop-color="#be9415"/><stop offset="0.69" stop-color="#ab8511"/><stop offset="0.9" stop-color="#795d06"/><stop offset="1" stop-color="#654e02"/></linearGradient><linearGradient id="linear-gradient-2" x1="76.5" y1="119.5" x2="104.5" y2="119.5" gradientUnits="userSpaceOnUse"><stop offset="0" stop-color="#dcb520"/><stop offset="0.1" stop-color="#d9b21f"/><stop offset="0.18" stop-color="#d1a91c"/><stop offset="0.23" stop-color="#c79d18"/><stop offset="0.3" stop-color="#c59a17"/><stop offset="0.54" stop-color="#c29716"/><stop offset="0.73" stop-color="#cfa61b"/><stop offset="0.9" stop-color="#d7af1e"/></linearGradient><linearGradient id="linear-gradient-3" x1="193.22" y1="18.32" x2="408.39" y2="196.81" xlink:href="#linear-gradient"/><linearGradient id="linear-gradient-4" x1="390.25" y1="142.26" x2="468.5" y2="142.26" gradientUnits="userSpaceOnUse"><stop offset="0" stop-color="#dcb520"/><stop offset="0.1" stop-color="#d9b21f"/><stop offset="0.18" stop-color="#d1a91c"/><stop offset="0.23" stop-color="#c79d18"/><stop offset="0.36" stop-color="#c59a17"/><stop offset="0.78" stop-color="#c29716"/><stop offset="0.81" stop-color="#c89e18"/><stop offset="0.9" stop-color="#d7af1e"/></linearGradient><linearGradient id="linear-gradient-5" x1="128" y1="121" x2="458.35" y2="121" xlink:href="#linear-gradient-4"/><linearGradient id="linear-gradient-6" x1="259.22" y1="100.74" x2="502.32" y2="302.4" xlink:href="#linear-gradient-2"/><linearGradient id="linear-gradient-7" x1="41.5" y1="153" x2="191.5" y2="153" xlink:href="#linear-gradient-2"/></defs><title>BELT</title><path class="cls-1" d="M57.5,112.5l21-15,340-42s8.15-7,7-12c-3-13-31-20-31-20s-48-6.26-95-8c-54-2-168,12-200,22s-53,30-56,37-5,22-2,25S57.5,112.5,57.5,112.5Z"/><path class="cls-2" d="M104.5,131.5l24-16,294-35,3-37s0,8-14,11-116-7-127-6-115,0-134,7-65.87,29.36-72,41C68.5,115.5,104.5,131.5,104.5,131.5Z"/><text class="cls-3" transform="translate(200.5 86.5)">OFF-WHITE</text><text class="cls-4" transform="matrix(0.96, -0.28, 0.28, 0.96, 104.48, 97.01)">5,400 lbs</text><path class="cls-5" d="M78,109c62-25,62-24,62-24L82.69,117"/><path class="cls-6" d="M104.5,131.5h0l-28-6,1-18a20.58,20.58,0,0,0,8,11C92.5,123.5,104.5,131.5,104.5,131.5Z"/><path class="cls-7" d="M363.5,164.5s25,0,40-4,52-22,55-25c0,0,10-8,10-17s-4-21-20-28-41-17-95-22-77-10-112-7-105,16-109,31-1,18,10,24,19,10,19,10,12-6,47-10,88-4,88-4,27-18,48-22c38.76-7.38,20-4,72-5,13.15-.25,36,11,38,15s7,15,0,22-47,24-61,27-119,11-144,11l-2,16Z"/><path class="cls-8" d="M468.5,120.5l-.78,26.84L467,164H390.25S440.5,146.5,448.5,141.5C461.75,133.22,462.5,134.5,468.5,120.5Z"/><path d="M464.16,138.32c-2.71-.55-6.32,6-8.06,14.69a47,47,0,0,0-.91,7.46,27,27,0,0,0,.08,3.54h2.94c-.63-1.14-.85-3.38-.59-6.08a26.84,26.84,0,0,1,.44-3c1-5.15,3.19-9,4.82-8.72,1,.2,1.57,2,1.6,4.54a23.18,23.18,0,0,1-.35,4.29c-.05.35-.12.71-.19,1.07-.72,3.58-2,6.55-3.22,7.92h2.39a43.15,43.15,0,0,0,2.79-9c.17-.82.31-1.64.43-2.43.22-1.48.37-2.9.44-4.23C467.09,142.79,466.14,138.71,464.16,138.32Z"/><path class="cls-5" d="M453.25,162.5,469,146"/><line class="cls-5" x1="458.35" y1="161.5" x2="466.83" y2="152"/><text class="cls-9" transform="translate(445.75 163)">S</text><path class="cls-10" d="M133,91a11.79,11.79,0,0,0-5,10v37l66,11,95.5,8.5h21s23-14,41-17,44-8,55-6,16,5,16,5l33-17s9-16-5-25-34-13-45-13-54,1-74,9-37,21-45,25-35,12.32-68,12c-30.56-.3-53.34,1.22-74-12C130.15,109.32,128.5,111.5,133,91Z"/><text class="cls-11" transform="translate(418.97 126.89) rotate(13.92)">W<tspan class="cls-12" x="14.02" y="0">e</tspan></text><path d="M396,95c-.15.89-.22,1.34-.36,2.23-1.75,0-2.62.08-4.36.18-.62,4.16-.91,6.24-1.49,10.4-1.18.08-1.77.13-3,.25.53-4.17.81-6.25,1.38-10.42-1.75.15-2.62.25-4.37.47.11-.9.17-1.35.28-2.25A96.57,96.57,0,0,1,396,95Z"/><path d="M409.07,95.46c1.76.16,2.63.26,4.38.49-1.1,4.93-1.63,7.4-2.67,12.35-1.09-.13-1.63-.19-2.72-.29.67-3.36,1-5,1.71-8.39.05-.24.13-.57.22-1s.18-.77.23-1c-2,4-2.94,6.08-4.8,10.19-1.14-.08-1.71-.11-2.86-.16-.3-4.24-.45-6.36-.78-10.59,0,.24-.1.57-.18,1s-.13.78-.17,1c-.61,3.38-.91,5.07-1.5,8.46-1.09,0-1.64,0-2.74,0,.82-5,1.24-7.53,2.12-12.55,1.78,0,2.68,0,4.46.12.32,4,.47,6,.76,10C406.3,101.19,407.21,99.27,409.07,95.46Z"/><path d="M426.77,98.45c0,3,0,4.43,0,7.38,0,.81-.07,1.22-.12,2,.37-.71.55-1.07.91-1.78,1.38-2.61,2.08-3.9,3.51-6.48,1.25.36,1.87.55,3.11.94-.14,2.94-.22,4.41-.37,7.34-.05.82-.08,1.22-.14,2,.38-.68.57-1,1-1.69,1.54-2.51,2.32-3.76,3.92-6.21,1.17.41,1.75.63,2.9,1.07-3.13,4.06-4.56,6.17-7.43,10.44-1.06-.35-1.61-.54-2.69-.87.14-3,.21-4.5.34-7.5.07-1,.11-1.47.17-2.45l-1.15,2.16c-1.46,2.61-2.18,3.92-3.6,6.56-1.06-.28-1.59-.42-2.65-.68-.3-5.22-.47-7.83-.85-13C424.87,98,425.5,98.14,426.77,98.45Z"/><path d="M442.58,116.74c-.95-.4-1.43-.6-2.41-1,1.46-4.7,2.38-7,4.12-11.52,1.09.45,1.63.69,2.71,1.17C445.12,109.88,444.1,112.08,442.58,116.74Z"/><path d="M450.84,107.2c1.07.53,1.6.8,2.65,1.35-1.83,3.5-2.83,5.21-4.37,8.86,2.29,1.18,3.44,1.82,5.9,3.28-.36.78-.53,1.17-.85,2a86.34,86.34,0,0,0-8.2-4.4A93.35,93.35,0,0,1,450.84,107.2Z"/><text class="cls-13" transform="translate(129.68 164.57) rotate(4.28)">OFF</text><path d="M257,133.05c.82,7,1.25,10.43,2.14,17.37.17,1.94.25,2.91.42,4.85l1.05-5c1.6-7.33,2.39-11,3.94-18.42,2.2-.45,3.3-.71,5.49-1.3.82,6.85,1.25,10.27,2.12,17.1.21,1.92.32,2.87.54,4.78.41-2,.61-3,1-5,1.69-7.67,2.52-11.52,4.15-19.26,2.12-.73,3.18-1.12,5.31-2q-4.08,17-8.37,33.93c-2.08.62-3.12.91-5.2,1.43-.89-7-1.32-10.52-2.15-17.54-.23-2.34-.34-3.5-.56-5.84-.49,2.5-.73,3.75-1.23,6.24-1.63,7.55-2.47,11.31-4.16,18.79-2,.32-3,.45-5,.64q-2.67-15.21-5-30.49A54.18,54.18,0,0,0,257,133.05Z"/><path d="M288,155.52q.42-15.81.83-31.62c2.07-.89,3.11-1.35,5.18-2.29-.1,4.83-.14,7.25-.24,12.09,3.94-1.75,5.9-2.67,9.84-4.54,0-4.85.05-7.28.09-12.13,2.07-1,3.1-1.52,5.17-2.55q0,15.95,0,31.89l-5.39,2.48.1-14.21c-4,1.86-5.94,2.78-9.91,4.52l-.27,14.14C291.27,154.22,290.19,154.66,288,155.52Z"/><path d="M321.76,140.44c-2.16,1-3.24,1.47-5.39,2.47q-.14-16-.28-32c2.07-1,3.1-1.53,5.17-2.53Q321.52,124.42,321.76,140.44Z"/><path d="M346.85,97.64c.1,2.3.16,3.45.27,5.74-3,1-4.51,1.52-7.52,2.68.41,10.64.61,16,1,26.58-2.18.79-3.28,1.21-5.46,2.07-.33-10.6-.5-15.9-.84-26.51-3,1.27-4.52,2-7.54,3.33,0-2.27-.08-3.41-.13-5.68A157.1,157.1,0,0,1,346.85,97.64Z"/><path d="M371.38,98.87a61.44,61.44,0,0,0-13.29,1.57c.16,2.78.25,4.17.42,6.94a63,63,0,0,1,12.31-1.47c.17,2.29.26,3.44.43,5.73a63.11,63.11,0,0,0-12.4,1.41c.2,3.36.31,5,.51,8.4a62.76,62.76,0,0,1,14.28-1.34l.45,6c-7.87-.11-11.81.5-19.67,2.38q-.9-16.27-1.78-32.55A65.73,65.73,0,0,1,370.94,93Z"/><path class="cls-5" d="M254,152s33-8,43-15,38-20,46-23,38-8,55-7,24,2,38,7,15.52,10.55,15.52,10.55"/><path class="cls-5" d="M275.75,152C289,147,299,140,306,136s20-12,47-19,56-3,56-3,25,5,34,8,5.95,3.87,5.95,3.87"/><g id="front"><path class="cls-14" d="M205.5,165.5l-3,60s31,12,59,2c0,0,132-7,142-8s51-2,59-1,70,13,85,18l7,3,8-59s-40-11-58-13-51-5-68-5-62,3-87,4-67-3-77,0-19,7-30,6S213.5,170.5,205.5,165.5Z"/><polygon class="cls-15" points="562.5 180.5 578.5 184.5 570.5 242.5 554.5 239.5 562.5 180.5"/><polygon class="cls-16" points="578.5 184.5 562.5 180.5 566.5 178.5 580.5 181.5 574.5 239.5 570.5 242.5 578.5 184.5"/><path d="M217.87,211.06A17.06,17.06,0,0,1,205.52,214c-5-.55-8.53-2.52-10.63-5.43-2.69-3.72-3.58-8.69-2.24-14.78s4.37-10.6,8.4-13.34a18.54,18.54,0,0,1,12.35-2.78c5,.45,8.53,2.21,10.64,4.9,2.64,3.38,3.6,8.27,2.23,14.6S222,208,217.87,211.06Zm1.07-14.39q1.25-5.79-.63-9.17a7.36,7.36,0,0,0-6.22-3.75,9.79,9.79,0,0,0-7.62,2.42q-3.28,2.85-4.54,8.6t.65,9.22a7.6,7.6,0,0,0,6.25,3.93,9.36,9.36,0,0,0,7.6-2.48Q217.69,202.52,218.94,196.67Z"/><path d="M239.21,180.29c9.94.3,14.92.31,24.86.17-.52,2.47-.78,3.71-1.31,6.18-7,.09-10.55.09-17.58,0-.69,3.21-1,4.82-1.71,8,6.15.13,9.23.15,15.39.11l-1.28,6.1c-6.16,0-9.24,0-15.4-.15-1.25,5.85-1.87,8.78-3.12,14.62-2.91-.09-4.36-.14-7.28-.28Q235.5,197.66,239.21,180.29Z"/><path d="M272.63,180.28c9.94-.27,14.92-.5,24.86-1.05-.52,2.5-.78,3.74-1.31,6.24-7,.38-10.55.54-17.58.79-.68,3.25-1,4.87-1.71,8.12,6.16-.2,9.23-.33,15.39-.64L291,199.89c-6.16.3-9.24.43-15.4.62-1.24,5.92-1.87,8.88-3.11,14.8-2.92.08-4.37.11-7.29.16Q268.92,197.88,272.63,180.28Z"/><path d="M299.6,197.34c5.46-.31,8.2-.48,13.66-.85-.55,2.61-.83,3.91-1.38,6.52-5.46.36-8.2.53-13.66.83Z"/><path d="M330.74,177l.35,20-.19,5.61c.88-2.25,1.32-3.38,2.19-5.63,3.31-8.33,5-12.49,8.26-20.82l7.73-.57c0,8-.07,12.05-.12,20.09,0,2.24-.07,3.36-.12,5.6.89-2.22,1.33-3.33,2.22-5.54,3.61-8.39,5.41-12.58,9-20.95l7.44-.52q-8.67,18.15-17.32,36.31l-7,.52c0-8.21.07-12.32.11-20.52.08-2.72.12-4.08.19-6.8-1.06,2.79-1.59,4.19-2.66,7L332.26,212l-6.8.49Q324.2,195,323,177.55Z"/><path d="M368.11,209.34q3.72-17.78,7.45-35.55c2.9-.19,4.35-.27,7.25-.44L380,186.89c5.48-.33,8.22-.48,13.7-.74,1.15-5.4,1.72-8.1,2.86-13.5,2.91-.13,4.37-.19,7.28-.29q-3.72,17.69-7.45,35.37c-2.91.13-4.37.2-7.28.35,1.32-6.33,2-9.5,3.31-15.82-5.48.26-8.22.42-13.71.75l-3.3,15.86Z"/><path d="M413.71,207.14c-2.91.06-4.37.11-7.28.2q3.72-17.64,7.45-35.28c2.91-.06,4.37-.09,7.28-.12Q417.43,189.53,413.71,207.14Z"/><path d="M457.13,172.73c-.54,2.45-.8,3.68-1.34,6.13-4.19-.23-6.29-.32-10.49-.46q-3.06,14.34-6.11,28.69c-2.95-.06-4.43-.08-7.38-.1q3.06-14.38,6.12-28.78c-4.22-.08-6.33-.1-10.55-.09.54-2.49.8-3.73,1.34-6.21C438.17,171.89,447.69,172.15,457.13,172.73Z"/><path d="M489.67,182.21c-7.43-1.08-11.14-1.51-18.56-2.21-.63,2.92-.94,4.38-1.57,7.31,6.81.61,10.22,1,17,1.91l-1.3,5.91c-6.82-.9-10.23-1.26-17-1.85l-1.9,8.86c7.76.63,11.65,1,19.41,2.08-.53,2.45-.8,3.67-1.33,6.13-10.63-1.38-16-1.86-26.58-2.51q3.72-17.26,7.45-34.55c10.29.81,15.43,1.37,25.72,2.9C490.47,178.6,490.2,179.8,489.67,182.21Z"/><text class="cls-17" transform="translate(499.97 193.89) rotate(13.92)">TM W<tspan class="cls-18"><tspan x="0" y="25.2" xml:space="preserve">			</tspan></tspan></text><text class="cls-11" transform="translate(532.97 219.89) rotate(13.92)">W<tspan class="cls-12" x="14.02" y="0">e</tspan></text><path class="cls-5" d="M205.5,193.5c25,4,52,1,75,0s78-1,92-3,65-4,79-3,41,3,64,8,43,11,43,11"/><path class="cls-5" d="M205.5,199.5c25,4,52,1,75,0s78-1,92-3,65-4,79-3,41,3,64,8,43,11,43,11"/></g><path class="cls-19" d="M191.5,148.5l-3,58s-95-28-104-31-41-17-43-30v-46s25,23,35,26S191.5,148.5,191.5,148.5Z"/><polygon points="41.5 109.5 46.5 115.5 46.5 120.5 41.5 115 41.5 109.5"/><path d="M41.5,119.67c0-.17,5,5.83,5,5.83v6l-5-5.92Z"/><polygon points="41.5 131.5 47.5 138.5 46.5 144.5 41.5 138 41.5 131.5"/><path d="M59.11,122.67c0,.82-.08,1.24-.11,2.1-1.13-.73-1.69-1.08-2.88-1.72-.15,4-.11,6.41-.12,11a15.52,15.52,0,0,0-2.38-.94c.14-4.69.13-7,.33-11.11a20.88,20.88,0,0,0-3.48-1.15c.08-.88.11-1.31.19-2.14A23.78,23.78,0,0,1,59.11,122.67Z"/><path d="M68.33,128.61c1.42.83,2.27,1.3,3.78,2.09a95,95,0,0,0-.81,11.76l-2.18-1c0-3.51,0-5.31.18-8.51,0-.22,0-.54.07-.94s.06-.7.08-.92c-1.25,3.24-1.45,5.35-2.5,9.49a17.24,17.24,0,0,1-2.28-1.09c-.72-5-1.14-7.68-1.67-12.21,0,.22,0,.55,0,1s0,.78,0,1c-.12,3.42-.11,5.34-.11,9.06-.74-.49-1.1-.74-1.81-1.23,0-5.53-.13-8.47.23-13,1.17.81,1.76,1.23,3.05,2.06.45,4,.85,6.38,1.58,11C66.78,133.35,67.11,131.43,68.33,128.61Z"/><path d="M82.13,134.64c.57,3,1,4.64,1.65,7.86.15.88.23,1.32.38,2.19.12-.76.18-1.14.29-1.92.43-2.87.59-4.41,1.13-7.3,1.07.23,1.63.34,2.81.56.56,3.22.94,5,1.58,8.35.17.93.25,1.4.41,2.31.15-.79.23-1.2.38-2,.68-3.07.67-4.72,1.21-7.85.93.2,1.39.27,2.36.46-1.27,5.44-1.27,8.61-2.82,13.28-1-.28-1.45-.43-2.43-.75-.54-3.12-.92-4.88-1.62-8.28l-.5-2.78c-.15,1-.22,1.53-.36,2.54-.49,3-.68,4.55-1.29,7.19-.93-.35-1.39-.52-2.31-.89-1.24-5.34-2.15-8.57-3.21-13.63C80.71,134.25,81.17,134.39,82.13,134.64Z"/><path d="M99,152.41c-.94-.24-1.39-.35-2.27-.53.28-5,0-8.34.08-14.1,1,.21,1.5.32,2.53.56C99.27,144.19,99.49,147.5,99,152.41Z"/><path d="M103.15,139.27c1.07.27,1.61.42,2.68.72a111.24,111.24,0,0,1-.43,11.95c2.52.81,3.82,1.26,6.33,2.12a20.14,20.14,0,0,1-.4,2.15c-3.51-1.19-5.38-1.83-8.8-2.84C103.23,148.62,103.05,145.27,103.15,139.27Z"/><path d="M115.15,142.88l2.4.84c.19,5.38.33,8.17-.34,12.23,2.3.76,3.38,1.12,5.21,1.57a10.84,10.84,0,0,1-.5,1.93,59.82,59.82,0,0,1-7.61-2.23C115.48,152.85,115.29,149.38,115.15,142.88Z"/><text class="cls-20" transform="matrix(0.99, 0.12, -0.12, 0.99, 134.68, 162.63)">S 40</text><path class="cls-5" d="M41.5,122.81S64,141,79,147s50,11,59,13,48,9,48,9"/><path class="cls-5" d="M41.5,125.5s2,8,20,17,39,18,52,20,28,6,42,8,29,4,29,4"/><path d="M74.72,155.92l.9,5.09c.07.56.1.84.17,1.4.14-.51.21-.76.34-1.27.53-1.87.8-2.81,1.35-4.68l2,.4c.28,2,.42,3,.71,5.07.06.56.1.84.17,1.4.15-.49.22-.74.37-1.24.63-1.86.94-2.79,1.59-4.65l1.93.39c-1.32,3.18-2,4.77-3.21,7.95l-1.77-.37c-.3-2.07-.44-3.1-.74-5.17l-.2-1.7c-.18.63-.26.94-.43,1.57-.58,1.9-.86,2.84-1.4,4.74l-1.73-.35c-.83-3.59-1.25-5.39-2.09-9Z"/><path d="M90.07,161.43a3.07,3.07,0,0,1,1,1.16A3.37,3.37,0,0,1,91.5,164a8,8,0,0,1-.08,1.25l-4.76-1a1.73,1.73,0,0,0,.56,1.47,2.12,2.12,0,0,0,.92.43,1.41,1.41,0,0,0,1-.08,1.23,1.23,0,0,0,.4-.36l1.74.38a1.81,1.81,0,0,1-.75,1,3,3,0,0,1-2.53.39,4.29,4.29,0,0,1-2.22-1.26,3.35,3.35,0,0,1-.79-2.72,2.94,2.94,0,0,1,1.14-2.3,3.09,3.09,0,0,1,2.45-.37A4.22,4.22,0,0,1,90.07,161.43Zm-2.72.86a1.45,1.45,0,0,0-.55.87l3,.63a1.51,1.51,0,0,0-.36-1.08,1.75,1.75,0,0,0-1-.56A1.36,1.36,0,0,0,87.35,162.29Z"/><path d="M93.63,162.06l1.74.37c-.3,2.5-.45,3.75-.72,6.25l-1.71-.38C93.2,165.8,93.34,164.56,93.63,162.06Zm1.83-.37-1.75-.38c.07-.6.11-.9.18-1.5l1.75.37C95.57,160.79,95.53,161.09,95.46,161.69Z"/><path d="M101.18,163.7a2.4,2.4,0,0,1,.88,1.13c0-.36.07-.54.12-.9l1.66.37c-.34,2.37-.51,3.55-.83,5.92a3.07,3.07,0,0,1-.66,1.72c-.57.6-1.52.74-2.86.44a4.34,4.34,0,0,1-1.94-.92,2,2,0,0,1-.69-1.59l1.82.4a.88.88,0,0,0,.18.47,1.64,1.64,0,0,0,.88.42,1.14,1.14,0,0,0,1.28-.31,2.79,2.79,0,0,0,.37-1.23l0-.4a1.81,1.81,0,0,1-.6.48,2,2,0,0,1-1.34.09,2.93,2.93,0,0,1-1.88-1.29,3.64,3.64,0,0,1-.46-2.45,3.41,3.41,0,0,1,1-2.18,2.28,2.28,0,0,1,2.17-.5A3,3,0,0,1,101.18,163.7Zm0,4.61a1.82,1.82,0,0,0,.59-1.29,2.2,2.2,0,0,0-.2-1.44,1.44,1.44,0,0,0-1-.69,1.12,1.12,0,0,0-1.33.53,2.51,2.51,0,0,0-.31,1,2.42,2.42,0,0,0,.06,1,1.42,1.42,0,0,0,1.13,1.06A1.22,1.22,0,0,0,101.15,168.31Z"/><path d="M111,166a2.1,2.1,0,0,1,.69.79,1.62,1.62,0,0,1,.2.79,7.34,7.34,0,0,1-.14,1.22c-.24,1.47-.36,2.2-.59,3.66l-1.69-.39.6-3.79a1.94,1.94,0,0,0,0-.85,1,1,0,0,0-.8-.64,1.15,1.15,0,0,0-1.07.21,1.78,1.78,0,0,0-.53,1.15c-.21,1.35-.31,2-.51,3.38l-1.66-.38c.48-3.36.73-5,1.25-8.4l1.7.38c-.19,1.19-.28,1.79-.47,3a1.92,1.92,0,0,1,1-.56,2.48,2.48,0,0,1,1,0A2.93,2.93,0,0,1,111,166Z"/><path d="M113.77,167.82l.2-1.16.89.21c.12-.7.18-1,.31-1.74l1.66.38-.32,1.74,1,.24c-.08.46-.13.69-.21,1.16l-1-.24c-.24,1.31-.36,2-.59,3.28,0,.26,0,.43,0,.5s.25.16.58.24l.16,0a.51.51,0,0,0,.17,0l-.22,1.22-.78-.15a2.28,2.28,0,0,1-1.52-.78,1.24,1.24,0,0,1-.13-.92c.26-1.54.39-2.3.66-3.83Z"/><path d="M124.43,172.82a1.75,1.75,0,0,0,.14.94,2,2,0,0,0,1.4.88,3.59,3.59,0,0,0,1.06.11,1,1,0,0,0,1-.8.73.73,0,0,0-.23-.73,4.07,4.07,0,0,0-1.09-.67l-.87-.42a6.18,6.18,0,0,1-1.73-1.08,2.15,2.15,0,0,1-.5-2,2.33,2.33,0,0,1,1.23-1.67,3.74,3.74,0,0,1,2.66-.17,4.06,4.06,0,0,1,2.18,1.25,2.54,2.54,0,0,1,.56,2.28l-1.7-.4a1.29,1.29,0,0,0-.46-1.24,2.61,2.61,0,0,0-1-.46,2.07,2.07,0,0,0-1.19,0,.86.86,0,0,0-.58.67.76.76,0,0,0,.28.77,5.39,5.39,0,0,0,1.06.61l1.41.7a4,4,0,0,1,1.34,1,2.15,2.15,0,0,1,.38,1.89,2.43,2.43,0,0,1-1.3,1.7,3.8,3.8,0,0,1-2.67.17,4.4,4.4,0,0,1-2.45-1.38,2.61,2.61,0,0,1-.55-2.28Z"/><path d="M136.57,172a2.56,2.56,0,0,1,.85,1.18,3.06,3.06,0,0,1,.18,1.4,7.2,7.2,0,0,1-.24,1.24l-4.5-1.07a1.57,1.57,0,0,0,.35,1.47,1.69,1.69,0,0,0,.84.44,1.32,1.32,0,0,0,.95-.07,1.25,1.25,0,0,0,.43-.35l1.64.39a2.08,2.08,0,0,1-.86,1,3,3,0,0,1-2.51.35,3.52,3.52,0,0,1-2-1.29,3.13,3.13,0,0,1-.39-2.71,3.36,3.36,0,0,1,1.42-2.27,3.11,3.11,0,0,1,2.43-.34A3.76,3.76,0,0,1,136.57,172Zm-2.77.83a1.72,1.72,0,0,0-.65.86l2.79.66a1.37,1.37,0,0,0-.2-1.08,1.43,1.43,0,0,0-.88-.57A1.39,1.39,0,0,0,133.8,172.85Z"/><path d="M143,175.79a1.58,1.58,0,0,0-.06-.69,1,1,0,0,0-.75-.57,1.15,1.15,0,0,0-1.32.55,3.44,3.44,0,0,0-.45,1.11,3.22,3.22,0,0,0-.12,1.13,1.11,1.11,0,0,0,.88,1,1,1,0,0,0,.88-.12,1.65,1.65,0,0,0,.49-.73l1.62.39a3,3,0,0,1-.88,1.28,2.64,2.64,0,0,1-2.49.53,2.67,2.67,0,0,1-1.94-1.41,3.72,3.72,0,0,1-.13-2.47,3.77,3.77,0,0,1,1.39-2.31,2.9,2.9,0,0,1,2.38-.38,3.25,3.25,0,0,1,1.76,1,2.48,2.48,0,0,1,.39,2.06Z"/><path d="M148.84,174.79l-1,3.75a2,2,0,0,0-.09.82.83.83,0,0,0,.71.68,1.19,1.19,0,0,0,1.29-.41,2.69,2.69,0,0,0,.42-.93c.38-1.35.57-2,1-3.38l1.62.38c-.72,2.49-1.08,3.73-1.78,6.21l-1.52-.36c.1-.35.15-.53.24-.88l-.15.15a1.79,1.79,0,0,1-.28.2,2.16,2.16,0,0,1-.84.29,2.49,2.49,0,0,1-.84-.06,1.8,1.8,0,0,1-1.53-1.43,3.92,3.92,0,0,1,.17-1.67c.4-1.5.6-2.25,1-3.75Z"/><path d="M158.54,176.91l.13,0c-.21.66-.31,1-.51,1.66l-.26-.08-.19-.05a1.41,1.41,0,0,0-1.47.34,2.81,2.81,0,0,0-.51,1.06l-.88,3-1.56-.37c.71-2.49,1.08-3.73,1.81-6.22l1.52.36-.33,1.08a3.8,3.8,0,0,1,.9-.7,1.87,1.87,0,0,1,1.27-.11Z"/><path d="M160.43,177.5l1.59.37c-.79,2.49-1.18,3.73-2,6.22l-1.57-.37C159.26,181.23,159.65,180,160.43,177.5Zm1.83-.37-1.6-.37.47-1.5,1.61.37Z"/><path d="M169.1,179.88a2.08,2.08,0,0,1,0,1.81c-.57,1.68-.85,2.51-1.41,4.19l-1.57-.36c.5-1.52.75-2.27,1.26-3.79a2,2,0,0,0,.13-.78.81.81,0,0,0-.71-.68,1.23,1.23,0,0,0-1.31.45,2.82,2.82,0,0,0-.46.92l-1.1,3.36-1.53-.36c.78-2.48,1.18-3.72,2-6.2l1.52.34-.3.91a3.37,3.37,0,0,1,.8-.56,2.33,2.33,0,0,1,2.68.75Z"/><path d="M175,180.82a1.63,1.63,0,0,1,.58,1.11l.33-.9,1.5.33c-.86,2.37-1.29,3.55-2.14,5.92a4.27,4.27,0,0,1-1,1.73,3,3,0,0,1-2.84.48,3,3,0,0,1-1.64-.88,1.67,1.67,0,0,1-.3-1.58l1.65.38a.79.79,0,0,0,.06.46,1.2,1.2,0,0,0,.75.41,1.26,1.26,0,0,0,1.3-.34,3.83,3.83,0,0,0,.62-1.22l.15-.41a2.49,2.49,0,0,1-.68.5,2,2,0,0,1-1.31.1,2,2,0,0,1-1.5-1.25,3.53,3.53,0,0,1,.11-2.44A4.68,4.68,0,0,1,172.1,181a2.49,2.49,0,0,1,2.2-.53A2,2,0,0,1,175,180.82ZM174,185.41a2.51,2.51,0,0,0,.86-1.29,2.25,2.25,0,0,0,.13-1.43,1,1,0,0,0-.78-.67,1.33,1.33,0,0,0-1.4.55,3.73,3.73,0,0,0-.53,1,2.67,2.67,0,0,0-.16,1,1,1,0,0,0,.83,1A1.27,1.27,0,0,0,174,185.41Z"/><g id="buckle"><path class="cls-21" d="M251.5,157.5l-1,14s-27,1-41-5c-4.11-1.76-7-9-7-9Z"/><path class="cls-21" d="M293.5,157.5c1-2-1-5-3-5s-31-1-36-1-18-2-21-4-22-2-26-4-7,2-10,2-5,4-8,5,0,3-2,6-3,52-3,55,3,14,3,16,8,7,11,8,36,0,39-1,36-1,36-1,14,1,16-1,0-5,0-5-15-1-16-2,3-63,4-64,6,0,13,0S292.5,159.5,293.5,157.5Zm-29,69a122,122,0,0,1-19,5c-11,2-40-5-41-6s3-65,3-65h60Z"/></g></svg>