<svg xmlns="http://www.w3.org/2000/svg" xmlns:xlink="http://www.w3.org/1999/xlink" viewBox="0 0 267 768"><defs><style>.cls-1,.cls-3{fill:none;}.cls-2{fill:#1d1d1d;}.cls-3{stroke:#111;stroke-miterlimit:10;}.cls-4{clip-path:url(#clip-path);}.cls-5{fill:#fff;}.cls-6{clip-path:url(#clip-path-2);}</style><clipPath id="clip-path"><polygon class="cls-1" points="235 521 198.5 518.5 208.5 191.5 240.5 191.5 235 521"/></clipPath><clipPath id="clip-path-2"><path class="cls-1" d="M48,183l36,8S67,509,74,520H42S35,291,48,183Z"/></clipPath></defs><title>PANTS</title><g id="PANTS"><path class="cls-2" d="M41,624h72s12-277,23-286c0,0,1-4,5,17s13,162,13,162l7,107h70s14.5-436.5,8-470c-5.15-26.52-12-53-12-53s-66,7-79,7-69-5-73-7-15-6-15-6-3.64,15.16-7,22S37.53,306.81,40.5,383.5C42.82,443.49,41,624,41,624Z"/><polygon class="cls-3" points="234.5 520.5 198.5 518.5 208.5 191.5 240.5 191.5 234.5 520.5"/><g class="cls-4"><rect class="cls-5" x="163.8" y="184.6" width="109.52" height="18" transform="translate(-73.41 191.05) rotate(-41.03)"/><rect class="cls-5" x="166.8" y="219.6" width="109.52" height="18" transform="translate(-95.65 201.62) rotate(-41.03)"/><rect class="cls-5" x="169.8" y="254.6" width="109.52" height="18" transform="translate(-117.89 212.19) rotate(-41.03)"/><rect class="cls-5" x="172.8" y="293.6" width="109.52" height="18" transform="translate(-142.75 223.74) rotate(-41.03)"/><rect class="cls-5" x="172.8" y="332.6" width="109.52" height="18" transform="translate(-168.36 233.32) rotate(-41.03)"/><rect class="cls-5" x="172.8" y="371.6" width="109.52" height="18" transform="translate(-193.96 242.9) rotate(-41.03)"/><rect class="cls-5" x="176.8" y="408.6" width="109.52" height="18" transform="translate(-217.27 254.62) rotate(-41.03)"/><rect class="cls-5" x="176.8" y="451.6" width="109.52" height="18" transform="translate(-245.5 265.18) rotate(-41.03)"/><rect class="cls-5" x="176.8" y="488.6" width="109.52" height="18" transform="translate(-269.79 274.27) rotate(-41.03)"/></g><line class="cls-3" x1="47.5" y1="191.5" x2="79.5" y2="191.5"/><path class="cls-3" d="M46,186l38,5S70,504,77,515l-35,5"/><g class="cls-6"><rect class="cls-5" x="2.8" y="184.6" width="109.52" height="18" transform="translate(-112.96 85.35) rotate(-41.03)"/><rect class="cls-5" x="5.8" y="219.6" width="109.52" height="18" transform="translate(-135.2 95.92) rotate(-41.03)"/><rect class="cls-5" x="8.8" y="254.6" width="109.52" height="18" transform="translate(-157.44 106.49) rotate(-41.03)"/><rect class="cls-5" x="11.8" y="293.6" width="109.52" height="18" transform="translate(-182.31 118.04) rotate(-41.03)"/><rect class="cls-5" x="11.8" y="332.6" width="109.52" height="18" transform="translate(-207.91 127.62) rotate(-41.03)"/><rect class="cls-5" x="11.8" y="371.6" width="109.52" height="18" transform="translate(-233.52 137.2) rotate(-41.03)"/><rect class="cls-5" x="15.8" y="408.6" width="109.52" height="18" transform="translate(-256.82 148.92) rotate(-41.03)"/><rect class="cls-5" x="15.8" y="451.6" width="109.52" height="18" transform="translate(-285.05 159.48) rotate(-41.03)"/><rect class="cls-5" x="15.8" y="488.6" width="109.52" height="18" transform="translate(-309.34 168.57) rotate(-41.03)"/></g><polygon points="140.5 325.5 151.5 241.5 160.5 236.5 168.5 236.5 140.5 325.5"/><polygon points="148.5 175.5 151.5 220.5 154.5 228.5 160.5 201.5 148.5 175.5"/><path d="M166.5,219.5c2-2,32-31,32-31l21-6-46,37Z"/><path d="M198.5,137.5c1,3,0,32,0,32l8-16,13-14Z"/><polygon points="171.5 122.5 166.5 137.5 162.5 149.5 162.5 156.5 171.5 139.5 171.5 122.5"/><polygon points="140.5 130.5 126.5 153.5 126.5 161.5 135.5 145.5 140.5 130.5"/><polygon points="143.5 145.5 137.5 165.5 139.5 175.5 133.5 194.5 148.5 164.5 143.5 145.5"/><path d="M119.5,130.5c-1,4,0,15,0,15l7,8v-12Z"/><path d="M83.5,122.5c0,3-19,39-21,41S59,183,59,183l20.5-37.5,9-15Z"/><path class="cls-5" d="M100.18,116.85a3.63,3.63,0,0,1-5-.59,3.66,3.66,0,0,1-.52-2.49,3.74,3.74,0,0,1,1.11-2.27,3,3,0,0,1,2.59-.71,3,3,0,0,1,2.34,1.3,3.73,3.73,0,0,1,.54,2.47A3.6,3.6,0,0,1,100.18,116.85Zm-1.24-1.07a3,3,0,0,0,.34-2.94,1.51,1.51,0,0,0-2.26-.27,2.92,2.92,0,0,0-.36,2.94,1.53,1.53,0,0,0,2.28.27Z"/><path class="cls-5" d="M106.92,109.6l.35.06-.14,1.36-.47-.08a.55.55,0,0,0-.47.1.56.56,0,0,0-.17.33l0,.54,1.1.11-.12,1.17-1.1-.11c-.22,2-.32,3.07-.53,5.12l-1.69-.18.55-5.12-.94-.1.13-1.17.91.1,0-.41a2.38,2.38,0,0,1,.49-1.37,2.22,2.22,0,0,1,1.81-.39Z"/><path class="cls-5" d="M112.11,110.11l.34,0c0,.55-.07.82-.12,1.36a3.77,3.77,0,0,0-.47-.07.55.55,0,0,0-.47.1.57.57,0,0,0-.16.33c0,.13,0,.31,0,.54l1.1.1c0,.47-.06.7-.11,1.17l-1.1-.1c-.19,2-.28,3.08-.47,5.13l-1.69-.16c.2-2,.3-3.08.49-5.13l-.94-.09c.05-.47.07-.7.12-1.17l.91.09,0-.41a2.46,2.46,0,0,1,.48-1.37,2.2,2.2,0,0,1,1.81-.41Z"/><path class="cls-5" d="M122,113.25l1.71.12c.26,1.86.4,2.79.67,4.65.53-1.81.79-2.71,1.31-4.52l1.74.1c-.89,2.51-1.35,3.76-2.26,6.26l-1.75-.11-.7-4.71-1.35,4.57-1.77-.13c-.54-2.6-.8-3.91-1.32-6.51l1.8.14c.26,1.86.4,2.79.67,4.64C121.28,116,121.54,115.05,122,113.25Z"/><path class="cls-5" d="M134.21,114a1.89,1.89,0,0,1,.77.66,1.8,1.8,0,0,1,.29.75,9.39,9.39,0,0,1,0,1.24c-.07,1.5-.1,2.25-.17,3.75l-1.74-.08c.08-1.56.11-2.33.19-3.89a1.89,1.89,0,0,0-.14-.84.91.91,0,0,0-.85-.49,1.2,1.2,0,0,0-1,.4,2,2,0,0,0-.4,1.24c-.08,1.38-.11,2.07-.18,3.46l-1.71-.09c.2-3.44.29-5.16.48-8.6l1.67.09c-.06,1.22-.09,1.83-.16,3a2.15,2.15,0,0,1,.89-.73,2.32,2.32,0,0,1,1-.17A2.76,2.76,0,0,1,134.21,114Z"/><path class="cls-5" d="M139.93,113.43l-1.7-.06c0-.62,0-.92.06-1.54l1.69.06Zm-1.73.7,1.71.06c-.09,2.56-.14,3.83-.23,6.39l-1.72-.07C138.06,118,138.1,116.68,138.2,114.13Z"/><path class="cls-5" d="M142,115.51c0-.48,0-.71,0-1.19l.89,0,.05-1.78,1.66,0c0,.71,0,1.07,0,1.78l1,0c0,.47,0,.71,0,1.19l-1,0c0,1.35-.05,2-.09,3.37a.86.86,0,0,0,.09.5,1.23,1.23,0,0,0,.62.11h.33l0,1.25h-.81a2.18,2.18,0,0,1-1.64-.45,1.25,1.25,0,0,1-.26-.89c0-1.58.07-2.36.11-3.93Z"/><path class="cls-5" d="M152.16,114.59a2.74,2.74,0,0,1,1.1,1,3.2,3.2,0,0,1,.51,1.32,8.75,8.75,0,0,1,0,1.27c-1.89,0-2.84,0-4.72,0a1.48,1.48,0,0,0,.66,1.35,1.7,1.7,0,0,0,.93.26,1.46,1.46,0,0,0,.94-.28A1.33,1.33,0,0,0,152,119h1.73a2,2,0,0,1-.64,1.15,3.17,3.17,0,0,1-2.46.91,3.56,3.56,0,0,1-2.28-.82,3.06,3.06,0,0,1-.94-2.57,3.45,3.45,0,0,1,.94-2.53,3.09,3.09,0,0,1,2.31-.85A3.67,3.67,0,0,1,152.16,114.59ZM149.62,116a1.7,1.7,0,0,0-.46,1l2.91,0a1.38,1.38,0,0,0-.44-1,1.55,1.55,0,0,0-1-.36A1.37,1.37,0,0,0,149.62,116Z"/><path class="cls-5" d="M165.92,120a3,3,0,0,1-2.48,1,3.08,3.08,0,0,1-2.52-1,3.63,3.63,0,0,1-.83-2.4,3.68,3.68,0,0,1,.8-2.4,3,3,0,0,1,2.46-1,3,3,0,0,1,2.49,1,3.77,3.77,0,0,1,.86,2.38A3.61,3.61,0,0,1,165.92,120Zm-1.37-.9a3,3,0,0,0-.05-3,1.37,1.37,0,0,0-1.14-.5,1.38,1.38,0,0,0-1.13.53,2.46,2.46,0,0,0-.39,1.48,2.41,2.41,0,0,0,.42,1.48,1.39,1.39,0,0,0,1.15.51A1.37,1.37,0,0,0,164.55,119.11Z"/><path class="cls-5" d="M171.64,111.94H172l0,1.36h-.47a.55.55,0,0,0-.46.16.51.51,0,0,0-.11.35v.54l1.1,0,0,1.18-1.1,0c.05,2.06.08,3.09.14,5.15l-1.69,0-.13-5.15-.94,0,0-1.18.92,0V114a2.36,2.36,0,0,1,.31-1.42,2.14,2.14,0,0,1,1.74-.62Z"/><path class="cls-5" d="M176.84,111.75l.36,0,.05,1.35c-.09,0-.25,0-.47,0a.56.56,0,0,0-.46.16.58.58,0,0,0-.11.35l0,.54,1.1,0,0,1.18-1.1,0,.2,5.14-1.69.07c-.08-2.06-.11-3.09-.19-5.15l-.94,0c0-.47,0-.71,0-1.18l.92,0,0-.41a2.45,2.45,0,0,1,.3-1.42,2.16,2.16,0,0,1,1.73-.64Z"/><path class="cls-5" d="M187.09,113.57l1.71-.11c.51,1.81.76,2.71,1.28,4.52.28-1.86.42-2.79.69-4.65l1.75-.13c-.56,2.6-.84,3.91-1.42,6.51l-1.75.11c-.53-1.83-.79-2.74-1.31-4.58-.29,1.89-.44,2.83-.74,4.71l-1.77.11c-.87-2.51-1.31-3.77-2.17-6.28l1.81-.1c.5,1.81.76,2.71,1.27,4.52C186.7,116.34,186.84,115.42,187.09,113.57Z"/><path class="cls-5" d="M199.27,112.7a1.92,1.92,0,0,1,.84.56,1.62,1.62,0,0,1,.39.71,8.77,8.77,0,0,1,.17,1.22c.13,1.5.2,2.24.33,3.74l-1.73.15c-.14-1.55-.2-2.33-.33-3.88a1.76,1.76,0,0,0-.25-.81.88.88,0,0,0-.9-.37,1.17,1.17,0,0,0-1,.52,2,2,0,0,0-.24,1.29c.11,1.38.16,2.07.27,3.45l-1.7.13c-.26-3.43-.39-5.15-.66-8.58l1.67-.13.25,3a2.09,2.09,0,0,1,.78-.85,2.39,2.39,0,0,1,1-.3A3,3,0,0,1,199.27,112.7Z"/><path class="cls-5" d="M204.87,111.39l-1.7.16L203,110l1.7-.16Zm-1.63.92,1.7-.16c.25,2.54.37,3.81.62,6.35l-1.72.17Z"/><path class="cls-5" d="M207.23,113.17c0-.47-.07-.71-.12-1.18l.9-.09-.19-1.77,1.65-.18c.08.71.12,1.06.19,1.77l1-.11c.05.47.08.71.13,1.18l-1,.12c.14,1.34.22,2,.36,3.35a.82.82,0,0,0,.15.48,1.32,1.32,0,0,0,.63,0l.16,0,.17,0c.06.49.08.74.14,1.24l-.8.12a2.21,2.21,0,0,1-1.69-.24,1.19,1.19,0,0,1-.37-.85c-.17-1.56-.25-2.34-.41-3.91Z"/><path class="cls-5" d="M217.16,110.93a2.63,2.63,0,0,1,1.22.8,3.14,3.14,0,0,1,.67,1.25,6.88,6.88,0,0,1,.22,1.25c-1.88.24-2.82.35-4.69.57a1.54,1.54,0,0,0,.83,1.26,1.78,1.78,0,0,0,1,.13,1.48,1.48,0,0,0,.9-.41,1.41,1.41,0,0,0,.3-.48l1.72-.21a2.09,2.09,0,0,1-.48,1.22,3.18,3.18,0,0,1-2.33,1.22,3.5,3.5,0,0,1-2.37-.51,3.06,3.06,0,0,1-1.28-2.43,3.45,3.45,0,0,1,.6-2.62,3.11,3.11,0,0,1,2.19-1.15A3.73,3.73,0,0,1,217.16,110.93Zm-2.34,1.74a1.67,1.67,0,0,0-.33,1l2.9-.35a1.41,1.41,0,0,0-.57-.94,1.52,1.52,0,0,0-1-.23A1.4,1.4,0,0,0,214.82,112.67Z"/></g></svg>