<svg xmlns="http://www.w3.org/2000/svg" xmlns:xlink="http://www.w3.org/1999/xlink" viewBox="0 0 457 522"><defs><style>.cls-1{stroke:#e9edff;stroke-miterlimit:10;stroke-width:2px;fill:url(#linear-gradient);}.cls-2{fill:url(#linear-gradient-2);}.cls-3{font-size:86.72px;font-family:CollegeBold, College;font-weight:700;letter-spacing:0.05em;}.cls-4{fill:#d0d2df;opacity:0.25;}.cls-5{fill:#fff;}.cls-6{fill:#efefef;}</style><linearGradient id="linear-gradient" x1="244.78" y1="538.6" x2="200.78" y2="-206.4" gradientUnits="userSpaceOnUse"><stop offset="0.05" stop-color="#edeff6"/><stop offset="0.2" stop-color="#e1e4f0"/><stop offset="0.28" stop-color="#fff"/><stop offset="0.51" stop-color="#f9fafc"/><stop offset="0.56" stop-color="#eceef6"/><stop offset="0.72" stop-color="#fefefe"/><stop offset="0.82" stop-color="#f2f4ff"/><stop offset="0.92" stop-color="#edeff8"/></linearGradient><linearGradient id="linear-gradient-2" x1="58.41" y1="129.8" x2="433.39" y2="144.8" gradientUnits="userSpaceOnUse"><stop offset="0.03" stop-color="#ffa206"/><stop offset="0.13" stop-color="#f47c0d"/><stop offset="0.25" stop-color="#fc9608"/><stop offset="0.33" stop-color="#f8890b"/><stop offset="0.46" stop-color="#ffa206"/><stop offset="0.55" stop-color="#fd9d07"/><stop offset="0.7" stop-color="#f88a0a"/><stop offset="0.85" stop-color="#fc9608"/><stop offset="0.96" stop-color="#f88b0a"/></linearGradient></defs><title>SHIRT</title><g id="SHIRT"><path class="cls-1" d="M84,497s10,7,16,6,50-3,50-3,56-1,65,0,49.5.5,55.5.5,35-2,47,0,44,1,46,0,7-18,7-21-2-67-3-71,3-34,3-34,1-41,0-44,0-77,0-77l18,13s3-2,7-8,32-25,33-27,7-12,5-17-37-131-38-135-15-21-21-25l-74-39s-10,9-20,11-54,3-57,4-35-7-39-8-16-7-16-7-22,10-24,11-20,7-23,9-67,42-69,47-8,42-8,42-5,21-6,26-12,47-12,47l-8,34s26,21,34,28,14,12,16,14,14-5,14-5v26c0,6,6,39,6,39s-10,56-9,60,4,28,5,31-3,16-3,23S84,497,84,497Z"/><rect class="cls-2" x="91" y="94" width="270" height="85"/><text class="cls-3" transform="translate(97.02 164.26) scale(0.92 1)">WHITE</text><polyline points="155 188.5 90.5 277.63 90.5 311.5 188 188.5 155 188.5"/><path d="M217.67,188.5S101,336.67,91,340.33L90.5,375S126,335,131,333,251,188.5,251,188.5Z"/><polygon points="108 217 127.33 188.5 104 188.5 108 217"/><path d="M275.33,188.5h36S220,304,215,309l-52,52s-47,46-49,49-23.5,19-23.5,19V401.33L162,330s96-115,103-125a157.28,157.28,0,0,0,10.33-16.5"/><path d="M333,188.5h10s-7,24.5-5,28.5a16.65,16.65,0,0,0,5,6s-86,106-88,107-66,61-67,62l-42.67,42.5h-34S174,373,176,372s62-61,62-61l95-122.5"/><path d="M356.5,239.33v42.42S300,344,294,348s-54,50-54,50l-36,36.5H170.75S265,343,269,340s76-90,76-90l11.5-10.67"/><path d="M356.5,313.33v33S302,401,296,403s-32.38,31.5-32.38,31.5H227.17S274,389,279,386s48-44,55-49,22.5-23.67,22.5-23.67"/><path d="M356.5,365.67V400l-39.83,34.5h-33S316,401,320,400s36.5-34.33,36.5-34.33"/><path d="M356.5,419.33C355,420,340,434.5,340,434.5l16-.5.5-14.67"/><path class="cls-4" d="M17,232s19-44,24-44,56,12,61,15,2,20,2,20L66,270Z"/><path class="cls-5" d="M27.5,193.5l16-20,47,5,14,10v35s3-19-3-21-56-17-60-14-24,44-24,44Z"/><path class="cls-5" d="M54.5,89.5s-2,17,6,27,26,38,26,38l4,24s-19-36-21-42S54.5,121.5,54.5,89.5Z"/><path class="cls-6" d="M155,32s47,16,64,15,77-13,92-22l-6-3s-54,20-72,19-74-15-74-15Z"/><path class="cls-5" d="M340,217l8-34s22-15,31-14,34,10,34,10l17,24v17s-31-22-45-23S340,217,340,217Z"/><path class="cls-6" d="M340,217s29-22,47-20,36,10,36,10l7,13-45,44Z"/><path class="cls-5" d="M385,76s-13,24-16,34-8,32.33-8,32.33L385,98Z"/></g></svg>