<svg xmlns="http://www.w3.org/2000/svg" xmlns:xlink="http://www.w3.org/1999/xlink" viewBox="0 0 531 240"><defs><style>.cls-1{fill:url(#linear-gradient);}.cls-2{fill:url(#linear-gradient-2);}.cls-3{fill:#6c6c6e;opacity:0.43;}.cls-4{fill:#e2e2e2;}.cls-5{fill:#232225;}.cls-6{fill:url(#linear-gradient-3);}.cls-7{fill:url(#linear-gradient-4);}.cls-8{fill:url(#linear-gradient-5);}.cls-9{fill:url(#linear-gradient-6);}.cls-10{fill:url(#linear-gradient-7);}.cls-11{fill:#2f2f33;}.cls-12{fill:url(#linear-gradient-8);}.cls-13{fill:#fba46d;}.cls-14{fill:#e6e6e6;}.cls-15{font-size:8.22px;}.cls-15,.cls-16,.cls-21,.cls-22{font-family:Helvetica-Bold, Helvetica;font-weight:700;}.cls-16{font-size:17.87px;}.cls-17{fill:#4e4e50;}.cls-18{fill:#e35b4f;}.cls-19{fill:#e5a39d;stroke:#ea7b75;}.cls-19,.cls-20{stroke-miterlimit:10;}.cls-20{fill:none;stroke:#333;}.cls-21{font-size:10px;}.cls-22{font-size:20.18px;}.cls-23,.cls-24{fill:#ccc;}.cls-24{opacity:0.52;}</style><linearGradient id="linear-gradient" x1="36.78" y1="104.73" x2="501.94" y2="108.48" gradientUnits="userSpaceOnUse"><stop offset="0.09" stop-color="#fff"/><stop offset="0.23" stop-color="#ccc"/><stop offset="0.34" stop-color="#f2f2f2"/><stop offset="0.75" stop-color="#e6e6e6"/></linearGradient><linearGradient id="linear-gradient-2" x1="335.5" y1="169.31" x2="501.55" y2="169.31" gradientUnits="userSpaceOnUse"><stop offset="0.1" stop-color="#666"/><stop offset="1"/></linearGradient><linearGradient id="linear-gradient-3" x1="252.26" y1="65.38" x2="268.43" y2="51.38" gradientUnits="userSpaceOnUse"><stop offset="0.02" stop-color="#666"/><stop offset="0.28" stop-color="#fff"/></linearGradient><linearGradient id="linear-gradient-4" x1="271.75" y1="72.85" x2="287.25" y2="58.35" xlink:href="#linear-gradient-3"/><linearGradient id="linear-gradient-5" x1="291.79" y1="79.78" x2="302.13" y2="65.28" xlink:href="#linear-gradient-3"/><linearGradient id="linear-gradient-6" x1="311.92" y1="90.26" x2="323.92" y2="71.26" xlink:href="#linear-gradient-3"/><linearGradient id="linear-gradient-7" x1="330.8" y1="95.49" x2="344.97" y2="82.33" xlink:href="#linear-gradient-3"/><linearGradient id="linear-gradient-8" x1="352.86" y1="99.83" x2="357.03" y2="91.17" xlink:href="#linear-gradient-3"/></defs><title>SHOE</title><g id="SHOE"><path class="cls-1" d="M55.5,42.5s-6,2-6,12-3,33-3,33l-9,64s-3,39,0,42,15,9,18,9,233,4,246,4,131-11,141-12,55-16,55-16,3-21,4-24-9-17-12-20-11-3-41-10-64-17-69-20-49-22-49-22-63-32-64-37-19-14-19-14-34-24-38-25-18,38-24,44-27,26-33,28-41,9-46,5-33-25-35-31-2-16-9-13Z"/><path class="cls-2" d="M335.5,154.5s75-4,88-6,52-10,52-10l14-4s13,16,12,20-4,24-4,24S452.09,193.4,445.79,194,335.5,204.12,335.5,204.12Z"/><path class="cls-3" d="M338.5,169.5s110-11,116-12S495.33,146,495.33,146l-18.83,8.5-107,15Z"/><polygon class="cls-3" points="340.5 183.5 440.5 174.5 497.5 161.5 495.5 166.5 432.5 179.5 338.5 188.5 340.5 183.5"/><path class="cls-4" d="M349.56,153.67s2.94-19.17,3.94-20.17S358,96.17,358,96.17s1.5,7.33,1.5,8.33-3,24-3,24l-4.31,25Z"/><path class="cls-4" d="M356.64,109.66S193.5,60.5,189.5,55.5l-4-5,30-25,91.4,44.69,54.78,26Z"/><path class="cls-5" d="M294.5,104.5l-2,6-19-14,9.66-9.36-9.57-3L268.5,87.5l-6.5-7L235.34,72l-1.84,5.5,19,6L262,93s-18,12-20,11-8-2-8-2l-4,19h24l1-4-8-4,20-15,.5.5,17,17h-7l-1,7,25,2v-18Z"/><path class="cls-6" d="M262,49s-11.5,8.5-10.5,11.5,2,5,3,5,20-11.15,20-11.15Z"/><path class="cls-7" d="M279.58,56.84s-7.08,6.66-8.08,8.66-3,5,0,6,12-3,12-3l8.27-5.71Z"/><path class="cls-8" d="M295.89,64.25s-5.39,4.25-5.39,7.25,4,9,5,9,11-10,11-10Z"/><path class="cls-9" d="M314,73.55s-3.48,7-3.48,10a3.66,3.66,0,0,0,4,4c2,0,12.54-7.76,12.54-7.76Z"/><path class="cls-10" d="M334.18,83.13S327.5,91.5,330.5,93.5s16.82-4.14,16.82-4.14Z"/><polygon class="cls-11" points="251.79 154 267.5 154.5 229.5 198.5 206.5 197.5 244.5 156.5 251.79 154"/><path class="cls-12" d="M352.37,91.75s-3.87,6.75.13,7.75,7-4.3,7-4.3Z"/><path class="cls-13" d="M232,53v7s9,33,7,69l-5,79h5s3-30,5-33,7-26,7-26,4-81-6-96Z"/><path class="cls-14" d="M238.5,129l14.5-2s-.5-66-7.5-74L230,52l3.5,14S241,115,238.5,129Z"/><text class="cls-15" transform="translate(249.73 120.05) rotate(-96.6)">“SHOELACES”</text><polygon class="cls-4" points="310 204 335 204 335 201.75 314 202 312 158 310 204"/><text class="cls-16" transform="matrix(0, 0.6, -1, 0, 318.64, 163.11)">“OFF”</text><polygon class="cls-17" points="220.61 13.09 208 30 215 26 238 36.5 244.63 29.48 220.61 13.09"/><path class="cls-18" d="M216,39s-2,2-2,7-30,22-30,22L152.62,78.86,132,86l-4,8,31-8,51.79-22.13S223,54,223,50s-2-8-3-9S216,39,216,39Z"/><path class="cls-18" d="M198,43s-27,15-32,21-13,15-13,15l-10.91,3.51L143,75s16-16,21-18,25.21-12.15,25.21-12.15Z"/><path class="cls-19" d="M148.2,88.79s3.3,17.71,2.3,19.71-15,29-15,29-19-38-17-41,18-32,19-30,5,8,5,8v8l-12,3-3,8Z"/><ellipse class="cls-20" cx="143" cy="133" rx="5" ry="7"/><text class="cls-21" transform="translate(139.75 137.25)">C</text><text class="cls-22" transform="translate(151 140.35) scale(0.74 1)">2018</text><path class="cls-23" d="M48.67,84.67s24.41,17.08,34,26.4A21,21,0,0,1,86,115c4,7,23,35,23,35l4,2L94,122Z"/><polygon class="cls-24" points="63 43 61 52 92 83 110 87 81 66 63 43"/><path class="cls-11" d="M40.5,149.5l18,2s-14,19-16,26S40.88,196,40.88,196s-5.05-4.5-4.71-7.5Z"/><polygon class="cls-11" points="72.5 151.5 94.5 153.5 61.5 197.5 44.67 196 72.5 151.5"/><polygon class="cls-11" points="112.5 152 137.5 152.5 102.5 198 80.5 198 112.5 152"/><polygon class="cls-11" points="158.5 153.5 182.5 153.5 144.5 197.5 120.5 197.5 158.5 153.5"/><polygon class="cls-11" points="202.5 154.5 225.5 154.5 188.5 198.5 164.5 197.5 202.5 154.5"/><polygon class="cls-11" points="289.5 155.5 312.5 156.5 273.5 201.5 249.5 201.5 289.5 155.5"/><path class="cls-18" d="M122,87l-3,10s-91,26-93,25-5-5-2-6S122,87,122,87Z"/></g></svg>