<svg xmlns="http://www.w3.org/2000/svg" viewBox="0 0 471 416"><defs><style>.cls-1{fill:#242328;}.cls-2,.cls-4{fill:#fff;}.cls-3{fill:#f2f4ff;}.cls-4{font-size:6.69px;font-family:Helvetica-Bold, Helvetica;font-weight:700;}</style></defs><title>SWEATER</title><g id="SWEATER"><path class="cls-1" d="M392.6,403s37.94-8.93,42.4-7.81c0,0-1.12-25.66,0-32.36L392.6,172S359.13,69.39,352.43,63.81s-72.52-41.28-72.52-41.28S267.08,32,251.46,34.24s-48-1.11-54.67-6.69L190.09,22s-60.25,35.7-62.48,36.82-13.39,5.58-17.85,15.62-58,208.65-58,214.22-16.74,77-16.74,77l4.46,29,37.94,4.46,11.16-25.66,17.85-30.12s5.58,19,10,24.54S132.07,398,132.07,398s138.36-19,206.42-4.46c0,0,5.58-20.09,10-26.78s13.39-27.9,13.39-27.9l16.73,31.25Z"/><path d="M382,367.85a122.26,122.26,0,0,1,12.27-3.34,107.9,107.9,0,0,1,13.39-2.24,194.79,194.79,0,0,1,20.09-1.11l4.46,1.11s-14.5,1.12-15.62,1.12-27.89,4.46-27.89,4.46Z"/><path d="M350.2,69.39s-3.35,68.06,2.23,83.68,11.16,44.63,12.28,49.09,11.15,32.36,7.81,65.83-6.7,65.83-6.7,65.83l8.93-53.55s5.58-43.52-2.23-72.53-22.32-84.8-21.2-94.84S350.2,69.39,350.2,69.39Z"/><path d="M125.93,367.3s19-4.47,26.78-3.35,20.09,0,29,0,20.09,0,24.55-1.12S223,358.37,223,358.37s34.58,1.12,52.44,2.23,41.28-5.58,51.32-2.23a32.78,32.78,0,0,0,17.85,1.12l-12.27-2.24s-51.32-1.11-55.79,0-56.9-2.23-56.9-2.23-14.51,3.35-20.09,4.47-40.16,1.11-40.16,1.11Z"/><path d="M40,367.3a55.41,55.41,0,0,1,14.51,0c6.69,1.11,15.62,2.23,15.62,2.23l14.5,3.34-10-5.57-23.43-2.24Z"/><path d="M103.62,334.94S95.81,281.38,98,274.69s6.7-85.92,11.16-92.61,4.46-60.25,4.46-62.48,1.12-35.71,1.12-35.71l1.11,46.86s-2.23,65.83-4.46,70.3S103.62,334.94,103.62,334.94Z"/><path d="M184,37S209.62,49.3,221.89,49.3s30.13,1.12,36.82-2.23,26.78-15.62,26.78-15.62l-22.32,8.93S235.28,49.3,221.89,46,184,37,184,37Z"/><polygon class="cls-2" points="158.29 77.2 156.06 100.63 150.48 107.32 150.48 129.64 306.69 128.52 304.46 103.98 308.92 97.28 308.92 73.85 158.29 77.2"/><path class="cls-2" d="M149.92,138H204.6v16.73s-19,1.12-21.2,0S238.07,205,238.07,205l36.82-36.82-6.7-5.58,6.7-7.81H252.57L253.69,138l52.44-3.35,3.35,25.66,5.58,4.47,2.23,24.54-15.62,4.46-3.35-23.43-52.44,53.56,50.21,46.86V248.47h15.62l3.35,22.31-5.58,8.93v26.78H253.69l-1.12-17.86h25.67L266,279.71l5.58-6.7-37.93-35.7-55.79,52.44,25.66-1.12v17.86h-58V276.36l8.93-3.35V245.12l17.85,3.35,2.23,21.2L228,218.34l-49.1-45.74V196l-19-2.24-1.12-24.54-7.81-6.7Z"/><polygon class="cls-3" points="156.62 102.3 309.48 97.84 305.01 104.53 151.04 107.88 156.62 102.3"/><polygon class="cls-3" points="151.04 162.55 192.85 163.83 197.72 168.31 158.85 168.13 151.04 162.55"/><polygon class="cls-3" points="268.19 162.55 309.48 160.32 315.06 165.9 274.89 168.13 268.19 162.55"/><polygon class="cls-3" points="271.54 273.01 312.85 274.31 309.48 279.71 265.96 279.71 271.54 273.01"/><polygon class="cls-3" points="145.46 276.36 188.5 279.71 194.49 274.08 154.39 273.01 145.46 276.36"/><text class="cls-4" transform="translate(308.55 72.73)">TM</text></g></svg>